<svg xmlns="http://www.w3.org/2000/svg" version="1.1" xmlns:xlink="http://www.w3.org/1999/xlink" xmlns:svgjs="http://svgjs.dev/svgjs" viewBox="0 0 1422 800" opacity="1"><defs><linearGradient x1="50%" y1="0%" x2="50%" y2="100%" id="oooscillate-grad"><stop stop-color="hsl(255, 46%, 29%)" stop-opacity="1" offset="0%"></stop><stop stop-color="hsl(255, 46%, 29%)" stop-opacity="1" offset="100%"></stop></linearGradient></defs><g stroke-width="3" stroke="url(#oooscillate-grad)" fill="none" stroke-linecap="round"><path d="M 0 1995 Q 355.5 -100 711 400 Q 1066.5 900 1422 1995" opacity="1.00"></path><path d="M 0 1960 Q 355.5 -100 711 400 Q 1066.5 900 1422 1960" opacity="0.98"></path><path d="M 0 1925 Q 355.5 -100 711 400 Q 1066.5 900 1422 1925" opacity="0.97"></path><path d="M 0 1890 Q 355.5 -100 711 400 Q 1066.5 900 1422 1890" opacity="0.95"></path><path d="M 0 1855 Q 355.5 -100 711 400 Q 1066.5 900 1422 1855" opacity="0.93"></path><path d="M 0 1820 Q 355.5 -100 711 400 Q 1066.5 900 1422 1820" opacity="0.92"></path><path d="M 0 1785 Q 355.5 -100 711 400 Q 1066.5 900 1422 1785" opacity="0.90"></path><path d="M 0 1750 Q 355.5 -100 711 400 Q 1066.5 900 1422 1750" opacity="0.88"></path><path d="M 0 1715 Q 355.5 -100 711 400 Q 1066.5 900 1422 1715" opacity="0.86"></path><path d="M 0 1680 Q 355.5 -100 711 400 Q 1066.5 900 1422 1680" opacity="0.85"></path><path d="M 0 1645 Q 355.5 -100 711 400 Q 1066.5 900 1422 1645" opacity="0.83"></path><path d="M 0 1610 Q 355.5 -100 711 400 Q 1066.5 900 1422 1610" opacity="0.81"></path><path d="M 0 1575 Q 355.5 -100 711 400 Q 1066.5 900 1422 1575" opacity="0.80"></path><path d="M 0 1540 Q 355.5 -100 711 400 Q 1066.5 900 1422 1540" opacity="0.78"></path><path d="M 0 1505 Q 355.5 -100 711 400 Q 1066.5 900 1422 1505" opacity="0.76"></path><path d="M 0 1470 Q 355.5 -100 711 400 Q 1066.5 900 1422 1470" opacity="0.75"></path><path d="M 0 1435 Q 355.5 -100 711 400 Q 1066.5 900 1422 1435" opacity="0.73"></path><path d="M 0 1400 Q 355.5 -100 711 400 Q 1066.5 900 1422 1400" opacity="0.71"></path><path d="M 0 1365 Q 355.5 -100 711 400 Q 1066.5 900 1422 1365" opacity="0.69"></path><path d="M 0 1330 Q 355.5 -100 711 400 Q 1066.5 900 1422 1330" opacity="0.68"></path><path d="M 0 1295 Q 355.5 -100 711 400 Q 1066.5 900 1422 1295" opacity="0.66"></path><path d="M 0 1260 Q 355.5 -100 711 400 Q 1066.5 900 1422 1260" opacity="0.64"></path><path d="M 0 1225 Q 355.5 -100 711 400 Q 1066.5 900 1422 1225" opacity="0.63"></path><path d="M 0 1190 Q 355.5 -100 711 400 Q 1066.5 900 1422 1190" opacity="0.61"></path><path d="M 0 1155 Q 355.5 -100 711 400 Q 1066.5 900 1422 1155" opacity="0.59"></path><path d="M 0 1120 Q 355.5 -100 711 400 Q 1066.5 900 1422 1120" opacity="0.58"></path><path d="M 0 1085 Q 355.5 -100 711 400 Q 1066.5 900 1422 1085" opacity="0.56"></path><path d="M 0 1050 Q 355.5 -100 711 400 Q 1066.5 900 1422 1050" opacity="0.54"></path><path d="M 0 1015 Q 355.5 -100 711 400 Q 1066.5 900 1422 1015" opacity="0.53"></path><path d="M 0 980 Q 355.5 -100 711 400 Q 1066.5 900 1422 980" opacity="0.51"></path><path d="M 0 945 Q 355.5 -100 711 400 Q 1066.5 900 1422 945" opacity="0.49"></path><path d="M 0 910 Q 355.5 -100 711 400 Q 1066.5 900 1422 910" opacity="0.47"></path><path d="M 0 875 Q 355.5 -100 711 400 Q 1066.5 900 1422 875" opacity="0.46"></path><path d="M 0 840 Q 355.5 -100 711 400 Q 1066.5 900 1422 840" opacity="0.44"></path><path d="M 0 805 Q 355.5 -100 711 400 Q 1066.5 900 1422 805" opacity="0.42"></path><path d="M 0 770 Q 355.5 -100 711 400 Q 1066.5 900 1422 770" opacity="0.41"></path><path d="M 0 735 Q 355.5 -100 711 400 Q 1066.5 900 1422 735" opacity="0.39"></path><path d="M 0 700 Q 355.5 -100 711 400 Q 1066.5 900 1422 700" opacity="0.37"></path><path d="M 0 665 Q 355.5 -100 711 400 Q 1066.5 900 1422 665" opacity="0.36"></path><path d="M 0 630 Q 355.5 -100 711 400 Q 1066.5 900 1422 630" opacity="0.34"></path><path d="M 0 595 Q 355.5 -100 711 400 Q 1066.5 900 1422 595" opacity="0.32"></path><path d="M 0 560 Q 355.5 -100 711 400 Q 1066.5 900 1422 560" opacity="0.30"></path><path d="M 0 525 Q 355.5 -100 711 400 Q 1066.5 900 1422 525" opacity="0.29"></path><path d="M 0 490 Q 355.5 -100 711 400 Q 1066.5 900 1422 490" opacity="0.27"></path><path d="M 0 455 Q 355.5 -100 711 400 Q 1066.5 900 1422 455" opacity="0.25"></path><path d="M 0 420 Q 355.5 -100 711 400 Q 1066.5 900 1422 420" opacity="0.24"></path><path d="M 0 385 Q 355.5 -100 711 400 Q 1066.5 900 1422 385" opacity="0.22"></path><path d="M 0 350 Q 355.5 -100 711 400 Q 1066.5 900 1422 350" opacity="0.20"></path><path d="M 0 315 Q 355.5 -100 711 400 Q 1066.5 900 1422 315" opacity="0.19"></path><path d="M 0 280 Q 355.5 -100 711 400 Q 1066.5 900 1422 280" opacity="0.17"></path><path d="M 0 245 Q 355.5 -100 711 400 Q 1066.5 900 1422 245" opacity="0.15"></path><path d="M 0 210 Q 355.5 -100 711 400 Q 1066.5 900 1422 210" opacity="0.13"></path><path d="M 0 175 Q 355.5 -100 711 400 Q 1066.5 900 1422 175" opacity="0.12"></path><path d="M 0 140 Q 355.5 -100 711 400 Q 1066.5 900 1422 140" opacity="0.10"></path><path d="M 0 105 Q 355.5 -100 711 400 Q 1066.5 900 1422 105" opacity="0.08"></path><path d="M 0 70 Q 355.5 -100 711 400 Q 1066.5 900 1422 70" opacity="0.07"></path></g></svg>