<svg xmlns="http://www.w3.org/2000/svg" version="1.1" xmlns:xlink="http://www.w3.org/1999/xlink" xmlns:svgjs="http://svgjs.dev/svgjs" viewBox="0 0 2400 800" opacity="1"><defs><linearGradient x1="50%" y1="0%" x2="50%" y2="100%" id="oooscillate-grad"><stop stop-color="#bb84e8" stop-opacity="1" offset="0%"></stop><stop stop-color="#292040" stop-opacity="1" offset="100%"></stop></linearGradient></defs><g stroke-width="2" stroke="url(#oooscillate-grad)" fill="none" stroke-linecap="round"><path d="M 0 594 Q 600 110 1200 400 Q 1800 690 2400 594" opacity="1.00"></path><path d="M 0 567 Q 600 110 1200 400 Q 1800 690 2400 567" opacity="0.95"></path><path d="M 0 540 Q 600 110 1200 400 Q 1800 690 2400 540" opacity="0.91"></path><path d="M 0 513 Q 600 110 1200 400 Q 1800 690 2400 513" opacity="0.86"></path><path d="M 0 486 Q 600 110 1200 400 Q 1800 690 2400 486" opacity="0.82"></path><path d="M 0 459 Q 600 110 1200 400 Q 1800 690 2400 459" opacity="0.77"></path><path d="M 0 432 Q 600 110 1200 400 Q 1800 690 2400 432" opacity="0.73"></path><path d="M 0 405 Q 600 110 1200 400 Q 1800 690 2400 405" opacity="0.68"></path><path d="M 0 378 Q 600 110 1200 400 Q 1800 690 2400 378" opacity="0.64"></path><path d="M 0 351 Q 600 110 1200 400 Q 1800 690 2400 351" opacity="0.59"></path><path d="M 0 324 Q 600 110 1200 400 Q 1800 690 2400 324" opacity="0.55"></path><path d="M 0 297 Q 600 110 1200 400 Q 1800 690 2400 297" opacity="0.50"></path><path d="M 0 270 Q 600 110 1200 400 Q 1800 690 2400 270" opacity="0.46"></path><path d="M 0 243 Q 600 110 1200 400 Q 1800 690 2400 243" opacity="0.41"></path><path d="M 0 216 Q 600 110 1200 400 Q 1800 690 2400 216" opacity="0.37"></path><path d="M 0 189 Q 600 110 1200 400 Q 1800 690 2400 189" opacity="0.32"></path><path d="M 0 162 Q 600 110 1200 400 Q 1800 690 2400 162" opacity="0.28"></path><path d="M 0 135 Q 600 110 1200 400 Q 1800 690 2400 135" opacity="0.23"></path><path d="M 0 108 Q 600 110 1200 400 Q 1800 690 2400 108" opacity="0.19"></path><path d="M 0 81 Q 600 110 1200 400 Q 1800 690 2400 81" opacity="0.14"></path><path d="M 0 54 Q 600 110 1200 400 Q 1800 690 2400 54" opacity="0.10"></path></g></svg>